<?xml version="1.0" standalone="no"?>
<!DOCTYPE svg PUBLIC "-//W3C//DTD SVG 20010904//EN" "http://www.w3.org/TR/2001/REC-SVG-20010904/DTD/svg10.dtd">
<!-- Created using Krita: https://krita.org -->
<svg xmlns="http://www.w3.org/2000/svg" 
    xmlns:xlink="http://www.w3.org/1999/xlink"
    xmlns:krita="http://krita.org/namespaces/svg/krita"
    xmlns:sodipodi="http://sodipodi.sourceforge.net/DTD/sodipodi-0.dtd"
    width="24.48pt"
    height="24.48pt"
    viewBox="0 0 24.48 24.48">
<defs/>
<rect id="shape0" transform="translate(2.16, 1.68)" fill="none" stroke="#75ff0d" stroke-width="9.6" stroke-linecap="square" stroke-linejoin="bevel" width="19.92" height="20.64"/><path id="shape0" transform="translate(20.2692169331329, 0.413657488431284)" fill="none" stroke="#df0fff" stroke-width="0.648" stroke-linecap="square" stroke-linejoin="miter" stroke-miterlimit="2" d="M0 0L0.445477 24.0663"/><path id="shape1" transform="translate(13.5234178910228, 6.26850194007408)" fill="none" stroke="#df0fff" stroke-width="0.648" stroke-linecap="square" stroke-linejoin="miter" stroke-miterlimit="2" d="M0 18.2115L0.159099 0"/><path id="shape2" transform="translate(13.7461565386396, 0)" fill="none" stroke="#df0fff" stroke-width="0.648" stroke-linecap="square" stroke-linejoin="miter" stroke-miterlimit="2" d="M0 0L0.0318198 24.48"/><path id="shape3" transform="translate(14.8916695835262, 0)" fill="none" stroke="#df0fff" stroke-width="0.648" stroke-linecap="square" stroke-linejoin="miter" stroke-miterlimit="2" d="M0.286378 24.48L0 0"/><path id="shape4" transform="translate(13.4597782774179, 0)" fill="none" stroke="#df0fff" stroke-width="0.648" stroke-linecap="square" stroke-linejoin="miter" stroke-miterlimit="2" d="M0 0L0.190919 9.54594"/><path id="shape5" transform="translate(13.777976345442, 8.62316764345216)" fill="none" stroke="#df0fff" stroke-width="0.648" stroke-linecap="square" stroke-linejoin="miter" stroke-miterlimit="2" d="M0 0L0.0636396 16.1963"/><path id="shape6" transform="translate(16.8644976052754, 0)" fill="none" stroke="#df0fff" stroke-width="0.648" stroke-linecap="square" stroke-linejoin="miter" stroke-miterlimit="2" d="M0.0318198 24.48L0 0"/><path id="shape7" transform="translate(17.7554521957428, 0)" fill="none" stroke="#df0fff" stroke-width="0.648" stroke-linecap="square" stroke-linejoin="miter" stroke-miterlimit="2" d="M0.127279 0L0 24.48"/><path id="shape8" transform="translate(18.7736860134198, 0)" fill="none" stroke="#df0fff" stroke-width="0.648" stroke-linecap="square" stroke-linejoin="miter" stroke-miterlimit="2" d="M0 24.48L0.286378 0"/><path id="shape9" transform="translate(21.446549784822, 0)" fill="none" stroke="#df0fff" stroke-width="0.648" stroke-linecap="square" stroke-linejoin="miter" stroke-miterlimit="2" d="M0 0L0.763675 24.9149"/><path id="shape10" transform="translate(23.642116454188, 0)" fill="none" stroke="#df0fff" stroke-width="0.648" stroke-linecap="square" stroke-linejoin="miter" stroke-miterlimit="2" d="M0.0954594 24.48L0 0"/><path id="shape11" transform="translate(24.0239541358169, 0)" fill="none" stroke="#df0fff" stroke-width="0.648" stroke-linecap="square" stroke-linejoin="miter" stroke-miterlimit="2" d="M0 0L0.0318198 24.8513"/><path id="shape12" transform="translate(22.7511618637206, 0)" fill="none" stroke="#df0fff" stroke-width="0.648" stroke-linecap="square" stroke-linejoin="miter" stroke-miterlimit="2" d="M0 24.48L0.0636396 0"/><path id="shape13" transform="translate(19.9191990583065, 0)" fill="none" stroke="#df0fff" stroke-width="0.648" stroke-linecap="square" stroke-linejoin="miter" stroke-miterlimit="2" d="M0.159099 0L0 25.3604"/><path id="shape14" transform="translate(17.9145512297549, -0.445477295233691)" fill="none" stroke="#df0fff" stroke-width="0.648" stroke-linecap="square" stroke-linejoin="miter" stroke-miterlimit="2" d="M0 24.9255L0.318198 0"/><path id="shape15" transform="translate(12.24, 0.222738647616846)" fill="none" stroke="#df0fff" stroke-width="0.648" stroke-linecap="square" stroke-linejoin="miter" stroke-miterlimit="2" d="M0 0L0 24.8831"/>
</svg>
